<?xml version="1.0" encoding="UTF-8"?>
<svg width="225px" height="100px" viewBox="0 0 225 100" version="1.1" xmlns="http://www.w3.org/2000/svg" xmlns:xlink="http://www.w3.org/1999/xlink">
    <!-- Generator: Sketch 61.2 (89653) - https://sketch.com -->
    <title>fr-logo</title>
    <desc>Created with Sketch.</desc>
    <defs>
        <path d="M8.3286119,51.599455 C9.2917847,51.599455 10.184136,51.4993188 11.0056657,51.2990463 C11.8271955,51.0987738 12.5306893,50.7697548 13.1161473,50.3119891 C13.7016053,49.8542234 14.1595845,49.253406 14.490085,48.5095368 C14.8205855,47.7656676 14.9858357,46.859673 14.9858357,45.7915531 C14.9858357,44.4182561 14.6411709,43.273842 13.9518414,42.3583106 C13.2625118,41.4427793 12.2096317,40.880109 10.7932011,40.6702997 L10.7932011,40.6702997 L10.7932011,40.613079 C11.2086874,40.5367847 11.6100094,40.3985014 11.9971671,40.1982289 C12.3843248,39.9979564 12.7289896,39.7213896 13.0311615,39.3685286 C13.3333333,39.0156676 13.578848,38.5769755 13.7677054,38.0524523 C13.9565628,37.5279292 14.0509915,36.9032698 14.0509915,36.1784741 C14.0509915,35.4155313 13.9282342,34.7145777 13.6827195,34.0756131 C13.4372049,33.4366485 13.0453258,32.8882834 12.5070822,32.4305177 C11.9688385,31.972752 11.2747875,31.619891 10.4249292,31.3719346 C9.57507082,31.1239782 8.55524079,31 7.36543909,31 L7.36543909,31 L0,31 L0,51.599455 L8.3286119,51.599455 Z M6.79886686,40.0980926 L1.92634561,40.0980926 L1.92634561,32.6594005 L6.37393768,32.6594005 C7.43153919,32.6594005 8.32389046,32.7213896 9.0509915,32.8453678 C9.77809254,32.969346 10.368272,33.1696185 10.8215297,33.4461853 C11.2747875,33.722752 11.605288,34.0851499 11.8130312,34.5333787 C12.0207743,34.9816076 12.1246459,35.5299728 12.1246459,36.1784741 C12.1246459,36.8079019 12.0349386,37.3658038 11.8555241,37.8521798 C11.6761095,38.3385559 11.3786591,38.7486376 10.9631728,39.0824251 C10.5476865,39.4162125 10,39.6689373 9.32011331,39.8405995 C8.64022663,40.0122616 7.79981114,40.0980926 6.79886686,40.0980926 L6.79886686,40.0980926 Z M6.82719547,49.9400545 L1.92634561,49.9400545 L1.92634561,41.7574932 L7.05382436,41.7574932 C7.96033994,41.7574932 8.78186969,41.8099455 9.5184136,41.9148501 C10.2549575,42.0197548 10.8876298,42.2152589 11.4164306,42.5013624 C11.9452314,42.7874659 12.3512748,43.1927793 12.6345609,43.7173025 C12.917847,44.2418256 13.0594901,44.9332425 13.0594901,45.7915531 C13.0594901,46.6880109 12.9320113,47.4080381 12.6770538,47.9516349 C12.4220963,48.4952316 12.0396601,48.9148501 11.529745,49.2104905 C11.01983,49.5061308 10.3729934,49.7016349 9.58923513,49.7970027 C8.80547686,49.8923706 7.88479698,49.9400545 6.82719547,49.9400545 L6.82719547,49.9400545 Z M20.5949008,51.599455 L20.5949008,31 L18.8951841,31 L18.8951841,51.599455 L20.5949008,51.599455 Z M26.9688385,33.5463215 L26.9688385,31 L25.0991501,31 L25.0991501,33.5463215 L26.9688385,33.5463215 Z M26.8838527,51.599455 L26.8838527,36.7792916 L25.184136,36.7792916 L25.184136,51.599455 L26.8838527,51.599455 Z M32.917847,51.599455 L32.917847,43.6171662 C32.917847,43.1021798 32.9367328,42.6253406 32.9745042,42.1866485 C33.0122757,41.7479564 33.1161473,41.2901907 33.286119,40.8133515 C33.4183192,40.4318801 33.6071766,40.0694823 33.8526912,39.726158 C34.0982059,39.3828338 34.3956563,39.0776567 34.7450425,38.8106267 C35.0944287,38.5435967 35.4863078,38.3290191 35.9206799,38.1668937 C36.3550519,38.0047684 36.8366383,37.9237057 37.3654391,37.9237057 C38.7252125,37.9237057 39.6978281,38.2574932 40.2832861,38.9250681 C40.8687441,39.5926431 41.1614731,40.5940054 41.1614731,41.9291553 L41.1614731,41.9291553 L41.1614731,51.599455 L42.8611898,51.599455 L42.8611898,41.900545 C42.8611898,41.2901907 42.8281398,40.7036785 42.7620397,40.1410082 C42.6959396,39.5783379 42.483475,39.0299728 42.1246459,38.4959128 C41.5958451,37.7138965 40.9442871,37.1655313 40.1699717,36.8508174 C39.3956563,36.5361035 38.5552408,36.3787466 37.6487252,36.3787466 C36.6288952,36.3787466 35.7554297,36.6076294 35.0283286,37.0653951 C34.3012276,37.5231608 33.5977337,38.1144414 32.917847,38.8392371 L32.917847,38.8392371 L32.917847,36.7792916 L31.2181303,36.7792916 L31.2181303,51.599455 L32.917847,51.599455 Z M53.1444759,52 C53.6166195,52 54.0982059,51.9332425 54.5892351,51.7997275 C55.0802644,51.6662125 55.5571294,51.4754768 56.01983,51.2275204 C56.4825307,50.979564 56.9074599,50.6696185 57.2946176,50.2976839 C57.6817753,49.9257493 57.9981114,49.4918256 58.2436261,48.9959128 L58.2436261,48.9959128 L58.3002833,48.9959128 L58.3002833,51.599455 L60,51.599455 L60,31 L58.3002833,31 L58.3002833,39.153951 C57.7525968,38.2384196 57.0018886,37.5470027 56.0481586,37.0797003 C55.0944287,36.6123978 54.0982059,36.3787466 53.0594901,36.3787466 C51.9452314,36.3787466 50.9773371,36.5933243 50.1558074,37.0224796 C49.3342776,37.4516349 48.6543909,38.023842 48.1161473,38.7391008 C47.5779037,39.4543597 47.1765817,40.2888283 46.9121813,41.2425068 C46.6477809,42.1961853 46.5155807,43.1880109 46.5155807,44.2179837 C46.5155807,45.3051771 46.6383381,46.3256131 46.8838527,47.2792916 C47.1293673,48.23297 47.5212465,49.0579019 48.0594901,49.7540872 C48.5977337,50.4502725 49.2823418,50.9986376 50.1133144,51.3991826 C50.9442871,51.7997275 51.9546742,52 53.1444759,52 Z M53.3427762,50.4550409 C52.625118,50.4550409 51.9641171,50.3262943 51.3597734,50.0688011 C50.7554297,49.8113079 50.2266289,49.4346049 49.7733711,48.9386921 C49.3201133,48.4427793 48.9660057,47.8371935 48.7110482,47.1219346 C48.4560907,46.4066757 48.3286119,45.5817439 48.3286119,44.647139 C48.2908404,43.7125341 48.3663834,42.8399183 48.5552408,42.0292916 C48.7440982,41.2186649 49.0462701,40.5081744 49.4617564,39.8978202 C49.8772427,39.2874659 50.4060434,38.8058583 51.0481586,38.4529973 C51.6902738,38.1001362 52.4551464,37.9237057 53.3427762,37.9237057 C54.1170916,37.9237057 54.8111426,38.0905995 55.4249292,38.4243869 C56.0387158,38.7581744 56.5580737,39.2064033 56.9830028,39.7690736 C57.407932,40.3317439 57.733711,40.989782 57.9603399,41.743188 C58.1869688,42.496594 58.3002833,43.2929155 58.3002833,44.1321526 C58.3002833,45.0286104 58.1916903,45.863079 57.9745042,46.6355586 C57.7573182,47.4080381 57.4409821,48.0756131 57.0254958,48.6382834 C56.6100094,49.2009537 56.0906516,49.6444142 55.4674221,49.9686649 C54.8441926,50.2929155 54.1359773,50.4550409 53.3427762,50.4550409 Z" id="path-1"></path>
    </defs>
    <g id="fr-logo" stroke="none" stroke-width="1" fill="none" fill-rule="evenodd">
        <g id="logo" fill="#004ACE">
            <rect id="Rectangle" x="0" y="0" width="225" height="100"></rect>
        </g>
        <g id="Blind-vectoriel-logo" transform="translate(46.000000, 8.000000)" fill-rule="nonzero">
            <g id="Blind">
                <use fill="#000000" xlink:href="#path-1"></use>
                <use fill="#FFFFFF" xlink:href="#path-1"></use>
            </g>
            <g id="Group" transform="translate(62.000000, 0.000000)" fill="#FFFFFF">
                <path d="M28.8329954,34.4034338 C26.2872013,35.0576183 24.280298,37.1323179 23.68566,39.7116741 C23.5555829,40.2910947 23.4812531,40.8518243 23.4812531,41.3938629 C23.4626707,45.4124251 21.6601742,49.2253865 18.8356435,52.0664165 L13.6325607,57.2998929 C11.1796789,59.7671031 8.03924675,61.5240559 4.60149563,61.9352576 C4.15551711,61.9913306 3.69095615,62.1034765 3.22639518,62.2716954 C1.94420693,62.7576611 0.903590374,63.8230473 0.420446974,65.1127254 C-1.17764274,69.4677254 2.83616398,73.5236696 7.18445458,71.9162447 C8.48522527,71.430279 9.52584183,70.3835838 10.0089852,69.0939057 C10.1948096,68.626631 10.3063042,68.1593563 10.3434691,67.7107726 C10.7337003,64.25294 12.499032,61.0941632 14.9519139,58.6269529 L20.1549966,53.3934766 C22.9795273,50.5524465 26.7703447,48.7394208 30.765569,48.7207298 C31.4717017,48.7207298 32.1964168,48.6085839 32.9211319,48.384292 C35.1138596,47.7301075 36.8791913,46.0105367 37.5853239,43.8050002 C39.3506556,38.1416312 34.4263094,32.9829187 28.8329954,34.4034338 Z" id="Path"></path>
                <path d="M24.4289575,37.8238844 C23.0724395,40.1041848 23.1281868,42.9825968 24.5218697,45.2255152 C24.8377711,45.7301719 25.172255,46.1600646 25.5624862,46.5525753 C28.3684344,49.4122963 29.7806998,53.3934766 29.7806998,57.4120388 L29.7806998,64.8136696 C29.7806998,68.2901932 28.7958305,71.7854078 26.6402677,74.5142919 C26.3615311,74.8694206 26.101377,75.2806224 25.8969701,75.747897 C25.339497,77.0188842 25.339497,78.4954721 25.9155526,79.7664592 C27.8481262,83.9906223 33.5343523,83.9906223 35.4669259,79.7664592 C36.0429815,78.4954721 36.0429815,77.0188842 35.4855084,75.747897 C35.2811016,75.2806224 35.0395299,74.8881116 34.7422108,74.5142919 C32.586648,71.7854078 31.6017787,68.2901932 31.6017787,64.8136696 L31.6017787,57.4120388 C31.6017787,53.3934766 33.0140441,49.4122963 35.8199923,46.5525753 C36.3031357,46.0479187 36.7491142,45.4684981 37.120763,44.7769315 C38.2171268,42.758305 38.2542917,40.2724037 37.1950927,38.2350861 C34.4820567,32.9829187 27.3835652,32.8333908 24.4289575,37.8238844 Z" id="Path"></path>
                <path d="M23.7042424,43.3751075 C24.3546277,45.9357727 26.4172784,47.9543993 28.9816549,48.5525109 C29.5577105,48.6833478 30.1151837,48.7581118 30.6540744,48.7581118 C34.6492987,48.7768028 38.4401161,50.5898285 41.2646468,53.4308585 L46.4677295,58.6643349 C48.9206114,61.1315452 50.6673606,64.290322 51.0761743,67.7481546 C51.1319216,68.1967383 51.2434162,68.664013 51.4106582,69.1312876 C51.8938016,70.4209657 52.9530006,71.467661 54.2351888,71.9536267 C58.564897,73.5610516 62.5972861,69.5237984 60.9991964,65.1501074 C60.516053,63.8417383 59.4754365,62.795043 58.1932482,62.3090774 C57.7286872,62.1221675 57.2641263,62.0100216 56.8181478,61.9726396 C53.3803966,61.5801289 50.2399645,59.8044851 47.7870827,57.3372748 L42.5839999,52.1037985 C39.7594692,49.2627684 37.9569727,45.4498071 37.9383903,41.4312449 C37.9383903,40.7209874 37.8268956,39.9920389 37.6039064,39.2630904 C36.953521,37.0575539 35.2439367,35.2819101 33.0512089,34.5716526 C27.4207301,32.7773179 22.2919771,37.7304294 23.7042424,43.3751075 Z" id="Path"></path>
                <path d="M27.0862462,47.8048714 C29.3533037,49.1693135 32.2149992,49.1132405 34.4448918,47.7114165 C34.9466177,47.3936697 35.3740138,47.057232 35.764245,46.6647212 C38.6073581,43.8423822 42.5654174,42.4218672 46.5606417,42.4218672 L53.9192874,42.4218672 C57.3756209,42.4218672 60.8505369,43.4124895 63.5635729,45.580644 C63.9166393,45.8610088 64.3254529,46.1226826 64.7900139,46.3282835 C66.0536197,46.8890131 67.5216323,46.8890131 68.7852381,46.3095925 C72.9848692,44.3657298 72.9848692,38.6462878 68.7852381,36.7024252 C67.5216323,36.1230046 66.0536197,36.1230046 64.7900139,36.6837342 C64.3254529,36.889335 63.9352217,37.1323179 63.5635729,37.4313737 C60.8505369,39.5995281 57.3756209,40.5901505 53.9192874,40.5901505 L46.5606417,40.5901505 C42.5654174,40.5901505 38.6073581,39.1696354 35.764245,36.3472964 C35.2625191,35.8613307 34.6864635,35.4127471 33.9989133,35.0389273 C31.99201,33.9361591 29.5205456,33.8987771 27.4950598,34.9641634 C22.2733946,37.6743565 22.1247351,44.8330045 27.0862462,47.8048714 Z" id="Path"></path>
                <path d="M32.6052304,48.5338199 C35.1510245,47.8796354 37.1579278,45.8049358 37.7525659,43.2255796 C37.882643,42.646159 37.9569727,42.0854294 37.9569727,41.5433908 C37.9755551,37.5248286 39.7780517,33.7118672 42.6025823,30.8708372 L47.8056651,25.6373608 C50.258547,23.1701506 53.3989791,21.4131978 56.8367302,21.0019961 C57.2827087,20.9459231 57.7472697,20.8337772 58.2118306,20.6655583 C59.4940189,20.1795926 60.5346355,19.1142064 61.0177789,17.8245283 C62.6158686,13.4695283 58.6020619,9.41358411 54.2537713,11.021009 C52.9530006,11.5069747 51.912384,12.5536699 51.4292406,13.843348 C51.2434162,14.3106227 51.1319216,14.7778974 51.0947567,15.2264811 C50.7045255,18.6843137 48.9391938,21.8430905 46.486312,24.3103008 L41.2832292,29.5437771 C38.4586985,32.3848072 34.6678811,34.1978329 30.6726568,34.2165239 C29.9665242,34.2165239 29.2418091,34.3286698 28.517094,34.5529616 C26.3243662,35.2071462 24.5590346,36.926717 23.8529019,39.1322535 C22.0875702,44.7956225 27.0119164,49.954335 32.6052304,48.5338199 Z" id="Path"></path>
                <path d="M37.0092683,45.1133693 C38.3657864,42.8330689 38.310039,39.9546569 36.9163561,37.7117385 C36.6004547,37.2070818 36.2659708,36.7771891 35.8757396,36.3846784 C33.0697914,33.5249574 31.6575261,29.5437771 31.6575261,25.5252149 L31.6575261,18.1235841 C31.6575261,14.6470605 32.6423953,11.1518459 34.7979582,8.4229618 C35.0766947,8.06783304 35.3368489,7.65663133 35.5412557,7.18935665 C36.0987289,5.91836954 36.0987289,4.44178156 35.5226733,3.17079445 C33.5900997,-1.05336862 27.9038735,-1.05336862 25.9712999,3.17079445 C25.3952443,4.44178156 25.3952443,5.91836954 25.9527174,7.18935665 C26.1571243,7.65663133 26.398696,8.04914206 26.696015,8.4229618 C28.8515778,11.1518459 29.8364471,14.6470605 29.8364471,18.1235841 L29.8364471,25.5252149 C29.8364471,29.5437771 28.4241818,33.5249574 25.6182336,36.3846784 C25.1350902,36.889335 24.6891116,37.4687556 24.3174629,38.1603221 C23.221099,40.1789487 23.1839341,42.66485 24.2431331,44.7021676 C26.9561691,49.954335 34.0546606,50.1038628 37.0092683,45.1133693 Z" id="Path"></path>
                <path d="M37.7339834,39.5621462 C37.0835981,37.0014809 35.0209474,34.9828544 32.4565709,34.3847428 C31.8805153,34.2539059 31.3230422,34.1791419 30.7841515,34.1791419 C26.7889272,34.1604509 22.9981097,32.3474252 20.1735791,29.5063952 L14.9704963,24.2729188 C12.5176144,21.8057085 10.7708652,18.6469317 10.3620516,15.1890991 C10.3063042,14.7405154 10.1948096,14.2732407 10.0275677,13.8059661 C9.54442427,12.516288 8.48522527,11.4695927 7.20303702,10.983627 C2.87332885,9.37620214 -1.1590603,13.4134553 0.439029412,17.7871463 C0.922172813,19.0955154 1.96278937,20.1422107 3.24497762,20.6281763 C3.70953858,20.8150862 4.17409955,20.9272321 4.62007807,20.9646141 C8.05782919,21.3571248 11.1982613,23.1327686 13.6511432,25.5999789 L18.8542259,30.8334552 C21.6787566,33.6744853 23.4812531,37.4874466 23.4998356,41.5060088 C23.4998356,42.2162663 23.6113302,42.9452148 23.8343195,43.6741633 C24.4847048,45.8796998 26.1942891,47.6553435 28.3870169,48.3656011 C34.0174957,50.1599358 39.1462488,45.2068242 37.7339834,39.5621462 Z" id="Path"></path>
            </g>
        </g>
    </g>
</svg>